HIERARCHY
ROOT hips
{
  OFFSET 0 10.074487846421558 1.314567655973056
  CHANNELS 6 Xposition Yposition Zposition Yrotation Xrotation Zrotation
  JOINT spine
  {
    OFFSET -7.042773748992335e-31 0.5690686926897363 0
    CHANNELS 3 Yrotation Xrotation Zrotation
    JOINT chest
    {
      OFFSET 0 1.2435964857087873 0
      CHANNELS 3 Yrotation Xrotation Zrotation
      JOINT upperChest
      {
        OFFSET 0 1.194994586872362 0
        CHANNELS 3 Yrotation Xrotation Zrotation
        JOINT neck
        {
          OFFSET 0 1.515103653293861 0
          CHANNELS 3 Yrotation Xrotation Zrotation
          JOINT head
          {
            OFFSET 0 0.8111851616465653 0
            CHANNELS 3 Yrotation Xrotation Zrotation
            JOINT leftEye
            {
              OFFSET 0.27141371691966987 0.7490044407698551 0.18219031050045686
              CHANNELS 3 Yrotation Xrotation Zrotation
              End Site
              {
                OFFSET 0.27141371691966987 0.7490044407698551 0.18219031050045686
              }
            }
            JOINT rightEye
            {
              OFFSET -0.2714136877644943 0.7490044019380786 0.18219040411850668
              CHANNELS 3 Yrotation Xrotation Zrotation
              End Site
              {
                OFFSET -0.2714136877644943 0.7490044019380786 0.18219040411850668
              }
            }
          }
        }
        JOINT leftShoulder
        {
          OFFSET 0.4137993136083964 1.1593397335613034 0
          CHANNELS 3 Yrotation Xrotation Zrotation
          JOINT leftUpperArm
          {
            OFFSET 1.0096991868951026 0 0
            CHANNELS 3 Yrotation Xrotation Zrotation
            JOINT leftLowerArm
            {
              OFFSET 2.418380967671622 0 0
              CHANNELS 3 Yrotation Xrotation Zrotation
              JOINT leftHand
              {
                OFFSET 2.361538296260114 0 0
                CHANNELS 3 Yrotation Xrotation Zrotation
                JOINT leftIndexProximal
                {
                  OFFSET 0.7243699271447109 0.08118285989887508 0.2022042461579805
                  CHANNELS 3 Yrotation Xrotation Zrotation
                  JOINT leftIndexIntermediate
                  {
                    OFFSET 0.36553107045252053 -0.010567764853200323 -0.014102670024158437
                    CHANNELS 3 Yrotation Xrotation Zrotation
                    JOINT leftIndexDistal
                    {
                      OFFSET 0.22505120770060527 -0.007821041598631284 -0.007511611613336286
                      CHANNELS 3 Yrotation Xrotation Zrotation
                      End Site
                      {
                        OFFSET 0.22505120770060527 -0.007821041598631284 -0.007511611613336286
                      }
                    }
                  }
                }
                JOINT leftLittleProximal
                {
                  OFFSET 0.6721063881632002 0.08118279568569564 -0.3209324945517917
                  CHANNELS 3 Yrotation Xrotation Zrotation
                  JOINT leftLittleIntermediate
                  {
                    OFFSET 0.34587329423120616 5.3042709780015684e-8 -5.929537746918179e-8
                    CHANNELS 3 Yrotation Xrotation Zrotation
                    JOINT leftLittleDistal
                    {
                      OFFSET 0.1992782500022232 0.0030983716482184676 0.0038310952896712935
                      CHANNELS 3 Yrotation Xrotation Zrotation
                      End Site
                      {
                        OFFSET 0.1992782500022232 0.0030983716482184676 0.0038310952896712935
                      }
                    }
                  }
                }
                JOINT leftMiddleProximal
                {
                  OFFSET 0.7301229696860206 0.08118412848995638 0.022516891543707507
                  CHANNELS 3 Yrotation Xrotation Zrotation
                  JOINT leftMiddleIntermediate
                  {
                    OFFSET 0.4076277831942017 -0.000001240188283180288 -1.6203245635504349e-7
                    CHANNELS 3 Yrotation Xrotation Zrotation
                    JOINT leftMiddleDistal
                    {
                      OFFSET 0.2514739255593972 0.0000013850839168938478 -1.8644847207816007e-8
                      CHANNELS 3 Yrotation Xrotation Zrotation
                      End Site
                      {
                        OFFSET 0.2514739255593972 0.0000013850839168938478 -1.8644847207816007e-8
                      }
                    }
                  }
                }
                JOINT leftRingProximal
                {
                  OFFSET 0.7218060861525873 0.08118280646416753 -0.1494689818508163
                  CHANNELS 3 Yrotation Xrotation Zrotation
                  JOINT leftRingIntermediate
                  {
                    OFFSET 0.3781267508900358 0.000001373626195677602 -1.4143108284514483e-7
                    CHANNELS 3 Yrotation Xrotation Zrotation
                    JOINT leftRingDistal
                    {
                      OFFSET 0.21814333268795483 -0.0027137626495670197 -0.004991775417842292
                      CHANNELS 3 Yrotation Xrotation Zrotation
                      End Site
                      {
                        OFFSET 0.21814333268795483 -0.0027137626495670197 -0.004991775417842292
                      }
                    }
                  }
                }
                JOINT leftThumbProximal
                {
                  OFFSET 0.10743676110519984 -0.16423092885053192 -0.07708859146227388
                  CHANNELS 3 Yrotation Xrotation Zrotation
                  JOINT leftThumbIntermediate
                  {
                    OFFSET 0.40350402100066307 -0.01735099334274981 0.315629965828783
                    CHANNELS 3 Yrotation Xrotation Zrotation
                    JOINT leftThumbDistal
                    {
                      OFFSET 0.2320014489535681 -0.01842351809041043 0.21271298411519196
                      CHANNELS 3 Yrotation Xrotation Zrotation
                      End Site
                      {
                        OFFSET 0.2320014489535681 -0.01842351809041043 0.21271298411519196
                      }
                    }
                  }
                }
              }
            }
          }
        }
        JOINT rightShoulder
        {
          OFFSET -0.41379931360839656 1.1593397335613034 0
          CHANNELS 3 Yrotation Xrotation Zrotation
          JOINT rightUpperArm
          {
            OFFSET -1.0096991868951024 0 0
            CHANNELS 3 Yrotation Xrotation Zrotation
            JOINT rightLowerArm
            {
              OFFSET -2.4183809676716232 0 0
              CHANNELS 3 Yrotation Xrotation Zrotation
              JOINT rightHand
              {
                OFFSET -2.3615382962601132 0 0
                CHANNELS 3 Yrotation Xrotation Zrotation
                JOINT rightIndexProximal
                {
                  OFFSET -0.7243699271447109 0.08118285989887508 0.2022042461579805
                  CHANNELS 3 Yrotation Xrotation Zrotation
                  JOINT rightIndexIntermediate
                  {
                    OFFSET -0.36553107045252053 -0.010567764853200323 -0.014102670024158437
                    CHANNELS 3 Yrotation Xrotation Zrotation
                    JOINT rightIndexDistal
                    {
                      OFFSET -0.22505120770060527 -0.007821041598631284 -0.007511611613336286
                      CHANNELS 3 Yrotation Xrotation Zrotation
                      End Site
                      {
                        OFFSET -0.22505120770060527 -0.007821041598631284 -0.007511611613336286
                      }
                    }
                  }
                }
                JOINT rightLittleProximal
                {
                  OFFSET -0.6721063881632002 0.08118279568569564 -0.3209324945517917
                  CHANNELS 3 Yrotation Xrotation Zrotation
                  JOINT rightLittleIntermediate
                  {
                    OFFSET -0.34587329423120616 5.3042709780015684e-8 -5.929537746918179e-8
                    CHANNELS 3 Yrotation Xrotation Zrotation
                    JOINT rightLittleDistal
                    {
                      OFFSET -0.1992782500022232 0.0030983716482184676 0.0038310952896712935
                      CHANNELS 3 Yrotation Xrotation Zrotation
                      End Site
                      {
                        OFFSET -0.1992782500022232 0.0030983716482184676 0.0038310952896712935
                      }
                    }
                  }
                }
                JOINT rightMiddleProximal
                {
                  OFFSET -0.7301229696860206 0.08118412848995638 0.022516891543707507
                  CHANNELS 3 Yrotation Xrotation Zrotation
                  JOINT rightMiddleIntermediate
                  {
                    OFFSET -0.4076277831942017 -0.000001240188283180288 -1.6203245635504349e-7
                    CHANNELS 3 Yrotation Xrotation Zrotation
                    JOINT rightMiddleDistal
                    {
                      OFFSET -0.2514739255593972 0.0000013850839168938478 -1.8644847207816007e-8
                      CHANNELS 3 Yrotation Xrotation Zrotation
                      End Site
                      {
                        OFFSET -0.2514739255593972 0.0000013850839168938478 -1.8644847207816007e-8
                      }
                    }
                  }
                }
                JOINT rightRingProximal
                {
                  OFFSET -0.7218060861525873 0.08118280646416753 -0.1494689818508163
                  CHANNELS 3 Yrotation Xrotation Zrotation
                  JOINT rightRingIntermediate
                  {
                    OFFSET -0.3781267508900358 0.000001373626195677602 -1.4143108284514483e-7
                    CHANNELS 3 Yrotation Xrotation Zrotation
                    JOINT rightRingDistal
                    {
                      OFFSET -0.21814333268795483 -0.0027137626495670197 -0.004991775417842292
                      CHANNELS 3 Yrotation Xrotation Zrotation
                      End Site
                      {
                        OFFSET -0.21814333268795483 -0.0027137626495670197 -0.004991775417842292
                      }
                    }
                  }
                }
                JOINT rightThumbProximal
                {
                  OFFSET -0.10743676110519984 -0.16423092885053192 -0.07708859146227388
                  CHANNELS 3 Yrotation Xrotation Zrotation
                  JOINT rightThumbIntermediate
                  {
                    OFFSET -0.40350402100066307 -0.01735099334274981 0.315629965828783
                    CHANNELS 3 Yrotation Xrotation Zrotation
                    JOINT rightThumbDistal
                    {
                      OFFSET -0.2320014489535681 -0.01842351809041043 0.21271298411519196
                      CHANNELS 3 Yrotation Xrotation Zrotation
                      End Site
                      {
                        OFFSET -0.2320014489535681 -0.01842351809041043 0.21271298411519196
                      }
                    }
                  }
                }
              }
            }
          }
        }
      }
    }
  }
  JOINT leftUpperLeg
  {
    OFFSET 0.8487163290887698 -0.43932186100277326 0
    CHANNELS 3 Yrotation Xrotation Zrotation
    JOINT leftLowerLeg
    {
      OFFSET 0 -3.882816707004296 0
      CHANNELS 3 Yrotation Xrotation Zrotation
      JOINT leftFoot
      {
        OFFSET 0 -4.570431027442807 0.004629272230691511
        CHANNELS 3 Yrotation Xrotation Zrotation
        JOINT leftToes
        {
          OFFSET 0 -0.698875637876343 1.214565366696912
          CHANNELS 3 Yrotation Xrotation Zrotation
          End Site
          {
            OFFSET 0 -0.698875637876343 1.214565366696912
          }
        }
      }
    }
  }
  JOINT rightUpperLeg
  {
    OFFSET -0.8487163290887698 -0.43932186100277326 0
    CHANNELS 3 Yrotation Xrotation Zrotation
    JOINT rightLowerLeg
    {
      OFFSET 0 -3.882816707004296 0
      CHANNELS 3 Yrotation Xrotation Zrotation
      JOINT rightFoot
      {
        OFFSET 0 -4.570431027442807 0.004629272230691511
        CHANNELS 3 Yrotation Xrotation Zrotation
        JOINT rightToes
        {
          OFFSET 0 -0.698875637876343 1.214565366696912
          CHANNELS 3 Yrotation Xrotation Zrotation
          End Site
          {
            OFFSET 0 -0.698875637876343 1.214565366696912
          }
        }
      }
    }
  }
}
MOTION
Frames: 4
Frame Time: 0.03333333333333333
0.7285197377204895 -0.2694389038556402 0.16045917570590973 -7.681882393546018 5.48658316724746 -1.243270972916238 -2.218334695393179 6.4211689944578145 -2.4715748958479473 -1.568502006570826 29.604012644444055 -1.3272027736530734 0 0 0 0.15676356799070965 3.123768499375359 0.10416563882039762 0.9467305164907102 22.090277928754755 -0.20983397740580917 0 0 0 0 0 0 -10.347980156576893 -0.22532582680830276 -22.63860660653482 -26.502806401996498 -17.630943851704657 -39.448544704709974 -12.756480071988834 0.018268741967136487 0.16343798458030387 0.18540931226086435 15.095039415598647 3.5935768018795176 3.8862830949091225 0.28245313176073694 -12.173796260381804 2.0038209264267794 0.4079271563072013 -23.012740228694817 1.298533411060526 0.16721443400970157 -14.676821436182212 5.194952108251661 0.8246502299120678 -22.55638436142934 2.4211668423714645 0.6078578980141189 -28.18472950103805 1.2482381519573005 0.15430859400202404 -14.096403481905565 8.081020959190957 1.4358775087318993 -14.985641409626101 1.8638335399424075 0.3508844322345483 -21.32350881859124 1.8233190456840311 0.3352816525242409 -20.8382624258454 8.159062982133888 1.4871294600229248 -15.341480264524707 2.8180026479605242 0.8440492770035805 -33.34418143560533 1.5290877082377101 0.2333969606080126 -17.358055213786432 4.687057215613858 -0.2760777681291479 10.71130691266345 6.01183386647801 13.79145712631333 12.415240662547236 -25.95959356814948 -1.5717557783029819 16.11028817843589 5.856740836832093 0.394885070241726 18.212676783523875 9.260889644549207 -20.99018209684812 59.91550625148102 12.684304437011889 0.0180509679779176 -0.1625080590099723 3.341734838740912 4.950874549089359 5.640549584822419 3.01760669759406 -1.2350870202281983 13.051199154182065 -1.9529372380717647 0.5205510857880133 29.84773905076036 -1.6364855739729207 0.3575857763031535 24.65006477158378 -11.831816172204567 -12.374731825609793 14.426220477237207 -2.427211484613342 0.8407494053690977 38.20650905745418 -1.2406999541839825 0.20134177127607364 18.4348575667765 0.7900287779428072 -0.9363690490528706 15.438237611702368 -2.443178912490912 0.8533936808102258 38.503652530728274 -1.4421429088751399 0.2746627020086222 21.565012366681618 -2.784623671499709 0.047950464876291704 14.748393312834205 -2.8062197052979485 1.181065289501546 45.64377187428957 -1.3490435510104095 0.23922433547500221 20.110580249152864 1.4944269437413353 -6.4601653431591 -14.415920506945891 -17.287221064466554 15.450012922158285 0.8964232313528233 19.314708580357856 -16.943651495274608 -17.98243470222074 8.610707098910035 -17.384305700567896 -2.7440159514693496 8.535152480942987 25.900740483066894 3.49147819807584 -0.23804727650598384 -14.627109825630635 1.377478939129578 0.0000012307079497721972 -0.0010597711344883483 -2.2935888174450445e-7 -5.611478722386811 -29.428128154525357 0.4438840849712529 -12.603301482761998 40.19791177097204 -8.78414815979315 -3.4089336177181604 -0.23432715474410729 -1.2383067866867392 -0.03656367085936792 -6.757010123095199 2.6364081231106518
0.7308989763259888 -0.27131382756169486 0.12877745926380157 -7.279218627228245 5.767637048388265 -1.308553716209559 -2.531266409059995 6.471458322289989 -2.1871510708811663 -1.7178697215438468 29.611143876566423 -1.2278721209935728 0 0 0 0.16368146179826062 3.094590309453549 0.11866730629299144 0.9568500759915102 21.979952367416985 -0.17820764049086862 0 0 0 0 0 0 -10.598804916406454 -0.2510734614645124 -22.59691213910459 -27.435674877665583 -18.582765465723497 -38.3429215165659 -12.585989397414867 0.01778130389207044 0.1612893323281692 0.05444029778223378 14.554377384050499 3.8808566014307573 3.8911559274409258 0.2865865944317744 -12.563183395886243 2.003890800925651 0.4079586933706207 -23.013669171254545 1.2905639654508283 0.16512400046589915 -14.584701939630033 5.193586861861588 0.8280069232861254 -22.822044840535504 2.4211103271799965 0.6078030399704234 -28.183594217407798 1.2487481722864708 0.15445096127432814 -14.102455765909072 8.014241152282274 1.4359419888902034 -15.216158661422707 1.8623939994226626 0.35033491188290905 -21.306374309314833 1.8220879471820282 0.33479312556386903 -20.823678706255908 8.133466048150522 1.5013962802143348 -15.602402737194117 2.8102476815162936 0.8389591698732743 -33.24075552143807 1.5222106249926028 0.2312497022355567 -17.27752982851135 4.687057215613858 -0.2760777681291479 10.71130691266345 6.129946819723301 13.83356456413125 12.389648620670377 -26.0725851858114 -1.5179651335380215 16.215002904953316 5.865264848255189 0.3925414862934992 18.28403267149752 9.681692197546425 -21.086896982989945 59.537573834113985 12.62934855994773 0.01790507773140584 -0.16178793046854228 3.2393707666816867 5.762975342833159 5.791950666426321 3.0406341729697934 -1.2339206014122832 13.067153359515341 -1.9529005456138195 0.520532035177316 29.847125668362587 -1.6370653262848867 0.35785407990069845 24.65928414959467 -11.776446663739117 -12.392264736717141 14.471823235152915 -2.4263768346197856 0.8400915553674831 38.19095132364931 -1.240698780513189 0.2013522834290023 18.434564359157424 0.8015502467401839 -0.9435945472784437 15.491274249965482 -2.4442015404907975 0.8542041620682419 38.522702672811555 -1.4425152984100726 0.2748085388961408 21.570862670386525 -2.75970873529864 0.04138111489565533 14.749402185711405 -2.8063969309683627 1.1812597777753595 45.64746039639909 -1.3495314598873331 0.23941152697984722 20.118088628290757 1.4944269437413353 -6.4601653431591 -14.415920506945891 -17.421628777114588 15.482139218619892 0.9132613332667563 19.15085786741582 -16.978045074073254 -17.86088712423185 8.618679579069285 -16.932700641028866 -2.7019132645605985 8.067784882116657 25.73230996384455 3.252586330297742 -0.24497485147172485 -15.156239049671248 1.413285196157335 0.0000013181487768524902 -0.000884724712710441 8.368171678005261e-7 -5.558999759969307 -30.410517845954843 0.8222190803185153 -12.185368835007733 37.24120117183484 -7.901799965239192 -3.9341558413473052 0.12912031321848488 -1.1589700045039126 -0.007544424060035859 -5.094488628718262 1.7101016834131793
0.731975257396698 -0.2789041214459722 0.06721329689025879 -6.4034355579314735 6.280714142869864 -1.432892634962787 -3.030758824482682 6.595272853235591 -1.6331313846485247 -1.9402508921555512 29.663196927859666 -0.9904156708631618 0 0 0 0.1627101074275033 3.05966928193569 0.14661792569203186 0.8783669171466217 21.847995206735167 -0.07873765095904685 0 0 0 0 0 0 -11.260425367991552 -0.3274181056565951 -22.625823334568206 -29.339907544714105 -20.288623803637137 -36.05625910696316 -12.706161294602758 0.01812773590626023 0.16281181081221135 -0.17323689234131084 13.487354739105331 4.559739242784715 3.878139194589823 0.28834997937125056 -13.245733235128736 2.0050683771719373 0.40846587446928 -23.027863553738772 1.2781877824333594 0.16192485756297068 -14.44194188964596 5.185651756825272 0.8307931319716365 -23.313334817255335 2.4187179221161896 0.6065322332658092 -28.153653442019202 1.2489995919765937 0.1545115660832829 -14.10511290809263 7.880967556768436 1.4318717358380968 -15.645724988785943 1.8595858570842092 0.34922447852253774 -21.27260521254454 1.8193135268649956 0.33374720836693195 -20.79048696070493 8.079938238155261 1.5235364748220086 -16.065634169596468 2.7963287685978666 0.82986279453164 -33.05478554130185 1.5085160853102755 0.22702220821919386 -17.117481075336165 4.687057215613858 -0.2760777681291479 10.71130691266345 6.342203200322456 13.909671479112983 12.343736670187223 -26.27396987040294 -1.4212503811259336 16.401581348684406 5.794913383235786 0.3962365194089891 18.35350690949229 10.492331734183256 -21.31020007738351 58.83233988699079 12.532437260009715 0.017630922996283764 -0.16061313289575793 3.0770000345214648 7.034849396486778 5.8146015873831525 3.099561758854241 -1.2253235756846683 13.037213584263554 -1.9495333145365403 0.5186000794262573 29.790572263311617 -1.6374459339908103 0.3580290268708259 24.66555868373267 -11.720395384974015 -12.40872968378449 14.53583056132437 -2.4252866743871913 0.8392323533742895 38.170832804868226 -1.2410450545881826 0.20146638297766067 18.43988205477178 0.8235472218617413 -0.9550489593776395 15.561512782689395 -2.446007068384887 0.855642984192033 38.55649460650017 -1.4427429315465008 0.27490088091456993 21.574543769899677 -2.721566623171185 0.031127288002727717 14.773689276731726 -2.806911428233652 1.1817841062740149 45.6581926140066 -1.3497839497817175 0.2394964248382175 20.12203984877097 1.4944269437413353 -6.4601653431591 -14.415920506945891 -17.714071663541024 15.553586882555097 0.9491499988689523 18.929137437770695 -17.020171783446415 -17.699223758453677 8.483839594536239 -16.009558980033734 -2.6232450573373023 7.254640725397659 25.434279682668823 2.985950568431827 -0.2377834660545915 -16.23935246441484 1.352125394285507 -0.0000016913815253903687 -0.0005833281810309588 2.1848904669012686e-8 -5.549680057438683 -31.65984375043215 1.359265729821667 -11.501781233024856 30.08914934956943 -5.893734953378302 -3.56477902638783 1.27336328665378 -0.22673436091651 0.000007680598702804341 -0.07146581527124257 -2.9647382144227185e-8
0.7216626405715942 -0.29033676915105033 -0.008101819083094597 -5.0393351321742506 6.848049001396311 -1.704113720848172 -3.5204473384850554 6.721656533835028 -0.7603414494345545 -2.1405907110403564 29.772500544537905 -0.5787733742333045 0 0 0 0.13666489763290363 3.090829936133936 0.18577306553022818 0.5999221754260041 21.92943916147965 0.13176636736608038 0 0 0 0 0 0 -12.37642666622559 -0.47769295641375864 -22.8876446484296 -32.16106040074928 -22.283987012727685 -32.74705289603464 -13.794004172634784 0.021339744278676135 0.17647758779951797 -0.6756724729590554 11.992532559028373 5.123590315867625 3.8422268052355677 0.2826008897587573 -13.758231899744095 2.010869440154309 0.4109247787520063 -23.098369628083383 1.2751876103481954 0.16115640486623165 -14.407286432636125 5.198795540464706 0.8415645268763711 -23.751460888116096 2.420166529746166 0.607309317602232 -28.17182872724312 1.2467179393785845 0.15393920216144033 -14.078961447710848 7.805194523165416 1.4391694152985508 -16.03007583698146 1.856864013628407 0.34818931216586163 -21.2400092226686 1.8135549684947694 0.331556868522128 -20.721707417923632 8.040691237099438 1.5373524727618884 -16.383907172846186 2.7830255393167853 0.8212447625383212 -32.87786549236081 1.4875915640622923 0.2206104526148292 -16.87282235652563 4.687057215613858 -0.2760777681291479 10.71130691266345 6.479022115005051 13.95863243625227 12.31421310699498 -26.334771317077756 -1.3947842646118653 16.462519544690227 5.5236531976517504 0.4173343583466516 18.316309555682437 11.383947917485758 -21.67267576484379 57.97537331943475 12.260711328348284 0.01686371062381482 -0.15717889303813878 3.1083788512555315 7.43999941720081 5.662973539433395 3.1591412666412158 -1.2168878704174453 13.001973043267796 -1.9369814095815985 0.5114454340270779 29.579574910872307 -1.6359553030249707 0.35734946316690225 24.64161559389203 -11.779133748001364 -12.384908078170465 14.581693349130415 -2.426819683908697 0.8404660821090977 38.19925667204612 -1.2406378890827368 0.20131810559171326 18.43381433079822 0.8311869925137585 -0.9657702340221367 15.67174582716685 -2.4476973520388925 0.856994712200178 38.58797526737079 -1.4412896477485835 0.27432366993907975 21.551569978060712 -2.7055666980881714 0.02561789932605553 14.894379190192058 -2.8111552447502115 1.1861250846434737 45.74689452674778 -1.3483285189375487 0.23896369211967228 20.09928289023482 1.4944269437413353 -6.4601653431591 -14.415920506945891 -17.731573725617636 15.558601217156342 0.9508980090563476 19.004972184269135 -17.00248287599314 -17.757369492965918 8.305727957157107 -14.14064888277508 -2.2206868873115644 5.810019514920344 24.648201569420824 2.487562331532564 -0.2121754551698323 -17.804938507971976 1.1901040914597525 -3.705952799293846e-7 -0.00021393043356643921 2.1824841546459138e-7 -5.47530466051673 -31.01587808983037 1.8599965431740775 -9.799573611492846 15.447026083475844 -2.2873097331818304 -3.5194449464333952 7.066794580880631 0.04202722357702452 -0.000004789796060926102 1.8824942024264102 -0.0000026779304416571786
